HIERARCHY
ROOT Hips
{
	OFFSET 0.00 0.00 0.00
	CHANNELS 6 Xposition Yposition Zposition Xrotation Yrotation Zrotation
	JOINT Spine
	{
		OFFSET 0.00000 9.31055 0.00000
		CHANNELS 3 Xrotation Yrotation Zrotation
		JOINT Head
		{
			OFFSET 0.00000 11.91750 0.00000
			CHANNELS 3 Xrotation Yrotation Zrotation
			End Site
			{
				OFFSET 0.00000 4.52755 0.00000
			}
		}
		JOINT LeftShoulder
		{
			OFFSET 0.00000 9.31055 0.00000
			CHANNELS 3 Xrotation Yrotation Zrotation
			JOINT LeftArm
			{
				OFFSET 5.58633 0.00000 0.00000
				CHANNELS 3 Xrotation Yrotation Zrotation
				JOINT LeftForeArm
				{
					OFFSET 11.17266 0.00000 0.00000
					CHANNELS 3 Zrotation Yrotation Xrotation
					JOINT LeftHand
					{
						OFFSET 10.24161 0.00000 0.00000
						CHANNELS 3 Xrotation Yrotation Zrotation
						JOINT LeftHandThumb1
						{
							OFFSET 0.00000 0.00000 0.00000
							CHANNELS 3 Xrotation Yrotation Zrotation
							End Site
							{
								OFFSET 0.00000 0.00000 3.93700
							}
						}
						End Site
						{
							OFFSET 3.93700 0.00000 0.00000
						}
					}
				}
			}
		}
		JOINT RightShoulder
		{
			OFFSET 0.00000 9.31055 0.00000
			CHANNELS 3 Xrotation Yrotation Zrotation
			JOINT RightArm
			{
				OFFSET -5.58633 0.00000 0.00000
				CHANNELS 3 Xrotation Yrotation Zrotation
				JOINT RightForeArm
				{
					OFFSET -11.17266 0.00000 0.00000
					CHANNELS 3 Zrotation Yrotation Xrotation
					JOINT RightHand
					{
						OFFSET -10.24161 0.00000 0.00000
						CHANNELS 3 Xrotation Yrotation Zrotation
						JOINT RightHandThumb1
						{
							OFFSET 0.00000 0.00000 0.00000
							CHANNELS 3 Xrotation Yrotation Zrotation
							End Site
							{
								OFFSET 0.00000 0.00000 3.93700
							}
						}
						End Site
						{
							OFFSET -3.93700 0.00000 0.00000
						}
					}
				}
			}
		}
	}
	JOINT LeftUpLeg
	{
		OFFSET 3.72422 0.00000 0.00000
		CHANNELS 3 Xrotation Yrotation Zrotation
		JOINT LeftLeg
		{
			OFFSET 0.00000 -18.62110 0.00000
			CHANNELS 3 Xrotation Yrotation Zrotation
			JOINT LeftFoot
			{
				OFFSET 0.00000 -17.13141 0.00000
				CHANNELS 3 Xrotation Yrotation Zrotation
				JOINT LeftToeBase
				{
					OFFSET 0.00000 -1.68682 6.29531
					CHANNELS 3 Xrotation Yrotation Zrotation
					End Site
					{
						OFFSET 0.00000 0.00000 2.95275
					}
				}
			}
		}
	}
	JOINT RightUpLeg
	{
		OFFSET -3.72422 0.00000 0.00000
		CHANNELS 3 Xrotation Yrotation Zrotation
		JOINT RightLeg
		{
			OFFSET 0.00000 -18.62110 0.00000
			CHANNELS 3 Xrotation Yrotation Zrotation
			JOINT RightFoot
			{
				OFFSET 0.00000 -17.13141 0.00000
				CHANNELS 3 Xrotation Yrotation Zrotation
				JOINT RightToeBase
				{
					OFFSET 0.00000 -1.68682 6.29531
					CHANNELS 3 Xrotation Yrotation Zrotation
					End Site
					{
						OFFSET 0.00000 0.00000 2.95275
					}
				}
			}
		}
	}
}
MOTION
Frames: 17
Frame Time: 0.008333
 4.8131 38.6858 8.0466 -21.4760 -24.8039 3.7925 -7.6916 13.8461 12.2903 0.6886 15.0587 -12.4909 7.2534 8.2236 -25.3009 18.2081 -11.4301 -38.4088 -0.0000 -88.6004 16.4831 0.1493 -5.0026 1.7116 -0.0000 0.0000 -0.0000 9.6816 -1.6856 8.4290 31.9315 15.1934 33.2738 180.0000 77.9926 167.7650 -7.8844 21.6523 20.5723 -0.0000 0.0000 -0.0000 27.7611 40.8254 -7.7128 22.0908 0.0000 -0.0000 -1.8167 -13.9273 -13.9085 -12.2640 0.0000 -0.0000 15.5057 8.5714 -23.8684 23.4779 0.0000 0.0000 -9.2475 -7.6794 18.0251 -1.1719 -0.0000 0.0000
 4.8232 38.6830 8.0411 -21.3562 -25.1377 3.9340 -7.5426 13.2882 12.8484 0.3563 15.0442 -12.3513 7.3020 7.9666 -25.1810 18.0514 -11.5305 -38.8785 -0.0000 -88.7103 16.7185 0.1409 -4.7758 1.6923 -0.0000 0.0000 -0.0000 9.4708 -1.7018 8.5860 31.9439 14.9192 33.0736 180.0000 77.9087 167.4848 -7.9706 21.5294 20.8840 -0.0000 0.0000 -0.0000 27.9250 41.0825 -8.0443 22.0270 0.0000 0.0000 -1.6567 -14.0031 -13.8471 -12.4821 0.0000 -0.0000 15.3599 8.7505 -24.0910 23.4692 -0.0000 -0.0000 -9.3314 -7.5536 18.1001 -1.0492 0.0000 -0.0000
 4.8287 38.6814 8.0351 -21.2509 -25.3997 4.0716 -7.3704 12.6366 13.3733 0.1186 15.0066 -12.1871 7.4178 7.6885 -25.0416 17.8910 -11.7076 -39.3096 -0.0000 -88.7730 16.6175 0.1460 -4.6511 1.7996 -0.0000 0.0000 -0.0000 9.4763 -1.6387 8.7470 31.7480 14.6592 32.8996 180.0000 77.8565 167.3862 -8.0640 21.4750 21.1566 -0.0000 0.0000 -0.0000 28.0512 41.2787 -8.3238 21.9786 0.0000 0.0000 -1.4777 -14.0806 -13.8137 -12.7314 0.0000 0.0000 15.2432 8.8725 -24.2854 23.4438 -0.0000 0.0000 -9.3977 -7.4557 18.1338 -0.8960 -0.0000 -0.0000
 4.8349 38.6791 8.0263 -21.1227 -25.6878 4.2059 -7.1701 12.0433 13.9125 -0.2286 14.9927 -12.0116 7.5354 7.3666 -24.9013 17.6599 -11.8598 -39.7517 -0.0000 -88.8207 16.6877 0.1642 -4.6435 2.0269 -0.0000 0.0000 -0.0000 9.2718 -1.6755 8.9282 31.7528 14.4266 32.6822 180.0000 77.8158 167.3853 -8.1441 21.5609 21.2767 -0.0000 0.0000 -0.0000 28.1568 41.5050 -8.6031 21.9391 0.0000 0.0000 -1.3789 -14.1339 -13.7363 -12.7594 -0.0000 0.0000 15.0927 9.0287 -24.4729 23.4299 0.0000 -0.0000 -9.4665 -7.3712 18.2312 -0.6568 -0.0000 -0.0000
 4.8411 38.6778 8.0200 -21.0014 -25.9529 4.3367 -6.9467 11.4113 14.4528 -0.6075 15.0026 -11.8193 7.6596 7.0461 -24.7622 17.4423 -12.0110 -40.1885 -0.0000 -88.8851 16.8034 0.1641 -4.7393 1.9852 -0.0000 0.0000 -0.0000 9.1192 -1.6614 9.1178 31.7025 14.1448 32.4524 180.0000 77.7800 167.2283 -8.2559 21.5819 21.5278 -0.0000 0.0000 -0.0000 28.2644 41.6949 -8.8758 21.8978 -0.0000 0.0000 -1.2391 -14.1594 -13.7311 -12.9574 0.0000 -0.0000 14.9601 9.1408 -24.6584 23.3818 -0.0000 0.0000 -9.5191 -7.2702 18.2851 -0.4021 -0.0000 0.0000
 4.8496 38.6768 8.0133 -20.8831 -26.2342 4.4649 -6.6721 10.7493 14.9981 -0.9516 15.0335 -11.6430 7.7171 6.7626 -24.5966 17.2927 -12.1603 -40.6373 -0.0000 -88.9390 16.7873 0.1700 -4.7622 2.0467 -0.0000 0.0000 -0.0000 8.8838 -1.6041 9.2664 31.6730 13.8672 32.3042 180.0000 77.7761 167.0712 -8.3859 21.6367 21.7918 -0.0000 0.0000 -0.0000 28.3835 41.9053 -9.1605 21.8599 0.0000 -0.0000 -1.1197 -14.1919 -13.6757 -13.0553 0.0000 -0.0000 14.8250 9.2655 -24.8493 23.3364 0.0000 0.0000 -9.5493 -7.1897 18.3522 -0.1250 -0.0000 0.0000
 4.8534 38.6769 8.0061 -20.7585 -26.4758 4.5606 -6.4038 10.0735 15.5749 -1.2781 15.1015 -11.4500 7.7667 6.4664 -24.4406 17.1884 -12.3501 -41.0375 -0.0000 -89.0375 16.7462 0.1705 -4.4915 2.1765 -0.0000 0.0000 -0.0000 8.7455 -1.5896 9.4220 31.5788 13.6066 32.1301 180.0000 77.7655 166.9449 -8.4367 21.6374 21.9125 -0.0000 0.0000 -0.0000 28.4503 42.1167 -9.3715 21.8235 0.0000 -0.0000 -0.9974 -14.2399 -13.6238 -13.2186 -0.0000 0.0000 14.6850 9.3555 -24.9822 23.2604 0.0000 -0.0000 -9.5525 -7.1195 18.4598 0.2549 -0.0000 -0.0000
 4.8555 38.6773 8.0022 -20.6198 -26.6691 4.6633 -6.1378 9.3566 16.1362 -1.6395 15.1521 -11.2348 7.7916 6.1855 -24.2552 17.1241 -12.5498 -41.4589 -0.0000 -89.1434 16.5118 0.1644 -4.7275 1.9934 -0.0000 0.0000 -0.0000 8.5291 -1.5958 9.5803 31.5564 13.3673 31.9505 180.0000 77.7817 166.8305 -8.5097 21.6875 22.0426 -0.0000 0.0000 -0.0000 28.4839 42.2984 -9.5506 21.7902 0.0000 -0.0000 -0.9012 -14.2928 -13.5336 -13.2943 -0.0000 -0.0000 14.5493 9.3913 -25.1042 23.1514 -0.0000 0.0000 -9.5216 -7.0655 18.5456 0.5202 0.0000 0.0000
 4.8586 38.6782 7.9977 -20.4580 -26.8841 4.7809 -5.8707 8.6826 16.6825 -2.0208 15.2011 -10.9729 7.8962 5.8723 -24.0573 16.9646 -12.7774 -41.8466 -0.0000 -89.2466 16.4622 0.1468 -4.7286 1.7807 -0.0000 0.0000 -0.0000 8.4048 -1.5977 9.7665 31.4272 13.0973 31.7888 180.0000 77.7934 166.5365 -8.6128 21.6880 22.2866 -0.0000 0.0000 -0.0000 28.5217 42.4929 -9.7541 21.7436 -0.0000 0.0000 -0.7818 -14.3543 -13.5126 -13.3358 0.0000 0.0000 14.3801 9.4221 -25.2387 23.0500 0.0000 -0.0000 -9.5349 -6.9593 18.5880 0.8413 -0.0000 0.0000
 4.8633 38.6804 7.9910 -20.2315 -27.1335 4.9157 -5.6619 8.0354 17.2575 -2.3358 15.2670 -10.6989 7.9971 5.5764 -23.8850 16.8656 -13.0144 -42.2154 -0.0000 -89.3576 16.4688 0.1482 -4.7032 1.8073 -0.0000 0.0000 -0.0000 8.2022 -1.5971 9.9015 31.3895 12.8204 31.6919 180.0000 77.8117 166.3329 -8.6598 21.6254 22.4536 -0.0000 0.0000 -0.0000 28.5185 42.7307 -9.9725 21.6849 0.0000 -0.0000 -0.6206 -14.4308 -13.4212 -13.5484 -0.0000 -0.0000 14.1473 9.4965 -25.3681 22.9585 -0.0000 0.0000 -9.5515 -6.8411 18.6428 1.0538 0.0000 -0.0000
 4.8639 38.6821 7.9883 -20.0459 -27.3148 5.0415 -5.3875 7.3401 17.7714 -2.7387 15.2834 -10.3312 8.1406 5.1943 -23.6598 16.6888 -13.2130 -42.6105 -0.0000 -89.5082 16.5777 0.1569 -4.6546 1.9326 -0.0000 0.0000 -0.0000 8.0816 -1.5805 10.0933 31.2300 12.5061 31.6113 180.0000 77.8284 166.2224 -8.6935 21.6072 22.5498 -0.0000 0.0000 -0.0000 28.5412 42.9230 -10.1612 21.6061 -0.0000 0.0000 -0.4587 -14.5329 -13.3613 -13.6957 0.0000 0.0000 13.9869 9.5312 -25.4851 22.8569 -0.0000 0.0000 -9.5744 -6.7561 18.7379 1.1518 -0.0000 -0.0000
 4.8647 38.6834 7.9834 -19.8228 -27.5327 5.1935 -5.1096 6.6820 18.2700 -3.1807 15.3107 -9.9176 8.2422 4.9268 -23.4670 16.5961 -13.4925 -42.8623 -0.0000 -89.6371 16.5602 0.1531 -4.7310 1.8561 -0.0000 0.0000 -0.0000 7.9313 -1.5833 10.2555 31.0821 12.2361 31.5574 180.0000 77.8782 166.0371 -8.7739 21.5823 22.7624 -0.0000 0.0000 -0.0000 28.5657 43.1555 -10.3836 21.5158 -0.0000 -0.0000 -0.2915 -14.6434 -13.2879 -13.8200 -0.0000 0.0000 13.7667 9.5896 -25.6161 22.7802 0.0000 0.0000 -9.5929 -6.6405 18.7579 1.2704 0.0000 0.0000
 4.8654 38.6858 7.9784 -19.5925 -27.7395 5.3560 -4.8430 6.0474 18.7571 -3.4789 15.2492 -9.5345 8.3547 4.5507 -23.2648 16.5165 -13.7439 -43.1815 -0.0000 -89.8289 16.5697 0.1725 -4.5130 2.1906 -0.0000 0.0000 -0.0000 7.8919 -1.5839 10.4113 30.8358 11.9854 31.5192 180.0000 77.9419 165.7987 -8.7802 21.5155 22.8379 -0.0000 0.0000 -0.0000 28.5911 43.3999 -10.6042 21.4146 -0.0000 0.0000 -0.0959 -14.8421 -13.2872 -13.9487 0.0000 0.0000 13.5509 9.6591 -25.7504 22.7042 -0.0000 0.0000 -9.6045 -6.5521 18.8400 1.4185 -0.0000 -0.0000
 4.8618 38.6896 7.9768 -19.3685 -27.8639 5.5044 -4.5595 5.3111 19.2254 -3.8796 15.2127 -9.0883 8.5647 4.1827 -23.0829 16.3008 -13.9502 -43.4345 8.2051 -90.0000 8.2051 0.1652 -4.6200 2.0505 -0.0000 0.0000 -0.0000 7.8195 -1.5538 10.5743 30.6016 11.7092 31.5448 -180.0000 78.0303 165.7864 -8.8408 21.5456 22.9540 -0.0000 0.0000 -0.0000 28.5790 43.5941 -10.7599 21.3100 -0.0000 0.0000 0.0841 -15.0350 -13.1886 -14.1022 -0.0000 0.0000 13.3695 9.6676 -25.8468 22.5956 0.0000 0.0000 -9.6040 -6.4806 18.9146 1.5100 -0.0000 0.0000
 4.8596 38.6936 7.9732 -19.0794 -28.0195 5.7043 -4.3163 4.6083 19.6418 -4.3163 15.1131 -8.5816 8.5409 3.9739 -22.8792 16.3952 -14.2081 -43.6222 -180.0000 -89.8027 -163.4220 0.1663 -4.7685 2.0000 -0.0000 0.0000 -0.0000 7.7933 -1.5259 10.7587 30.3504 11.4344 31.5620 180.0000 78.1016 165.6103 -8.8307 21.4963 22.9751 -0.0000 0.0000 -0.0000 28.5828 43.8209 -10.9890 21.1665 -0.0000 0.0000 0.2617 -15.2161 -13.1560 -14.2446 -0.0000 -0.0000 13.1179 9.7213 -25.9702 22.5252 0.0000 -0.0000 -9.6257 -6.4191 18.9648 1.6389 0.0000 -0.0000
 4.8548 38.6987 7.9667 -18.7502 -28.1997 5.8906 -4.1201 3.9090 20.1218 -4.6215 14.9459 -8.1161 8.5296 3.7647 -22.7276 16.5256 -14.4470 -43.7593 -180.0000 -89.5968 -163.3487 0.1513 -4.6688 1.8577 -0.0000 0.0000 -0.0000 7.7352 -1.4781 10.8587 30.1771 11.2233 31.6034 180.0000 78.2194 165.4883 -8.8050 21.4685 22.9394 -0.0000 0.0000 -0.0000 28.5435 44.1150 -11.1910 21.0315 0.0000 -0.0000 0.4182 -15.4008 -13.1437 -14.3281 -0.0000 -0.0000 12.8165 9.8276 -26.0527 22.4739 0.0000 -0.0000 -9.6113 -6.3484 18.9768 1.6915 -0.0000 0.0000
 4.8512 38.7042 7.9615 -18.3773 -28.3860 6.1203 -3.9663 3.2362 20.5360 -4.9102 14.7733 -7.6384 8.6142 3.5423 -22.5736 16.6087 -14.7289 -43.8627 -180.0000 -89.3568 -163.5407 0.1490 -4.7341 1.8043 -0.0000 0.0000 -0.0000 7.7717 -1.4310 11.0187 29.9131 10.9820 31.6393 180.0000 78.3344 165.5103 -8.7715 21.5060 22.8260 -0.0000 0.0000 -0.0000 28.5124 44.3936 -11.4403 20.8788 0.0000 0.0000 0.5573 -15.5696 -13.1576 -14.2998 -0.0000 -0.0000 12.4920 9.9674 -26.1626 22.4308 0.0000 -0.0000 -9.6064 -6.3073 19.0520 1.8155 0.0000 0.0000
